<?xml version="1.0" encoding="utf-8"?>
<!-- Generator: Adobe Illustrator 22.0.1, SVG Export Plug-In . SVG Version: 6.00 Build 0)  -->
<svg version="1.1" id="Слой_1" xmlns="http://www.w3.org/2000/svg" xmlns:xlink="http://www.w3.org/1999/xlink" x="0px" y="0px"
	 viewBox="0 0 200.1 66.7" style="enable-background:new 0 0 200.1 66.7;" xml:space="preserve">
<style type="text/css">
	.st0{fill:#1A2E35;}
	.st1{fill:#FF5416;}
</style>
<g>
	<g>
		<path class="st0" d="M83.4,20.2c2.2,1.5,3.8,3.5,5,6.1c1.1,2.5,1.7,5.3,1.7,8.4c0,3.1-0.6,5.8-1.7,8.4c-1.1,2.5-2.8,4.6-5,6.1
			c-2.2,1.5-4.8,2.3-7.9,2.3c-1.9,0-3.6-0.2-4.9-0.6c-1.4-0.4-2.7-1.1-3.9-2v17.5h-8V18.5h6.4l0.8,3c1.4-1.2,2.8-2,4.3-2.6
			c1.5-0.6,3.2-0.9,5.2-0.9C78.6,17.9,81.2,18.7,83.4,20.2z M79.9,42c1.3-1.8,2-4.3,2-7.4c0-3.1-0.7-5.5-2-7.4
			c-1.3-1.8-3.2-2.8-5.5-2.8c-2.7,0-4.7,0.9-6,2.7c-1.3,1.8-2,4.3-2,7.4c0,3.1,0.7,5.6,2,7.4c1.3,1.8,3.3,2.7,6,2.7
			C76.7,44.8,78.5,43.8,79.9,42z"/>
		<path class="st0" d="M101.4,49.1c-2.5-1.5-4.4-3.5-5.7-6.1c-1.3-2.5-2-5.3-2-8.4c0-3.1,0.7-5.9,2-8.4c1.3-2.6,3.2-4.6,5.7-6.1
			c2.5-1.5,5.4-2.3,8.8-2.3c3.4,0,6.3,0.8,8.8,2.3c2.5,1.5,4.4,3.5,5.7,6.1c1.3,2.6,2,5.4,2,8.4c0,3.1-0.7,5.8-2,8.4
			c-1.3,2.5-3.2,4.6-5.7,6.1c-2.5,1.5-5.4,2.3-8.8,2.3C106.8,51.3,103.9,50.6,101.4,49.1z M116.4,42c1.5-1.8,2.2-4.3,2.2-7.4
			c0-3.1-0.7-5.6-2.2-7.4c-1.5-1.9-3.5-2.8-6.2-2.8c-2.6,0-4.7,0.9-6.2,2.8c-1.5,1.9-2.2,4.4-2.2,7.4c0,3.1,0.7,5.5,2.2,7.4
			c1.5,1.8,3.5,2.8,6.2,2.8C112.9,44.8,114.9,43.8,116.4,42z"/>
		<path class="st0" d="M132.4,5.6h8v8h-8V5.6z M132.4,18.5h8v32.2h-8V18.5z"/>
		<path class="st0" d="M173.2,21.9c2.1,2.7,3.1,6.3,3.1,10.8v18h-8V33.4c0-3-0.5-5.2-1.5-6.7c-1-1.4-2.6-2.2-4.9-2.2
			c-2.5,0-4.5,0.9-6.1,2.8v23.4h-8V18.5h7.5l0.1,2.3c2.7-1.8,5.6-2.8,8.6-2.8C168.1,17.9,171.1,19.3,173.2,21.9z"/>
		<path class="st0" d="M187.1,48.9c-1.5-1.7-2.2-3.6-2.2-6V25h-4.6l0.7-6.6h3.9v-7.1l8-0.8v7.9h7.1V25h-7.1v14.6
			c0,1.7,0.1,2.9,0.3,3.6c0.2,0.7,0.6,1.1,1.2,1.3c0.6,0.2,1.8,0.3,3.4,0.3h2.2l-0.7,6.6h-5.7C190.7,51.3,188.6,50.5,187.1,48.9z"/>
	</g>
	<path class="st1" d="M44.5,11.3h-5.4L48.3,0l9.3,11.3h-5.4v20.1c0,15.7-9.6,19.5-20.1,19.5c9-5.2,12.3-12,12.3-19.5V11.3z"/>
	<path class="st0" d="M42.1,30.3V12.8h-6.1l6.1-7.6V4.5H29.7v25.8c0,4.7-3.8,8.6-8.6,8.6c-4.7,0-8.6-3.9-8.6-8.6V4.5H0v25.8
		c0,11.6,9.4,21.1,21.1,21.1C32.7,51.4,42.1,41.9,42.1,30.3z"/>
</g>
</svg>
